<svg xmlns="http://www.w3.org/2000/svg" width="40" height="40" viewBox="0 0 40 40">
  <path id="diversity_4_FILL0_wght400_GRAD0_opsz48" d="M7,41v0ZM38,17a2.87,2.87,0,0,0,2.15-.875A2.937,2.937,0,0,0,41,14a3.023,3.023,0,0,0-5.125-2.15,3.048,3.048,0,0,0,0,4.275A2.893,2.893,0,0,0,38,17Zm0,3a5.893,5.893,0,0,1-6-6,5.829,5.829,0,0,1,1.725-4.25A6.013,6.013,0,0,1,44,14a5.763,5.763,0,0,1-1.75,4.275A5.829,5.829,0,0,1,38,20ZM24,15a3.894,3.894,0,0,0,2.825-1.15A3.828,3.828,0,0,0,28,11a4.012,4.012,0,0,0-4-4,3.828,3.828,0,0,0-2.85,1.175A3.894,3.894,0,0,0,20,11a3.929,3.929,0,0,0,4,4Zm0,3a6.916,6.916,0,0,1-7-7,6.787,6.787,0,0,1,2.025-4.95A6.721,6.721,0,0,1,24,4a6.745,6.745,0,0,1,4.95,2.05A6.745,6.745,0,0,1,31,11a6.957,6.957,0,0,1-7,7ZM14,22.05A6.251,6.251,0,0,1,18.6,20a6.72,6.72,0,0,1,2.95.7,8.663,8.663,0,0,0,4.875,0A6.666,6.666,0,0,1,29.4,20a6.279,6.279,0,0,1,4.575,2.05C35.325,23.417,12.667,23.417,14,22.05ZM10,17a2.87,2.87,0,0,0,2.15-.875A2.937,2.937,0,0,0,13,14a2.907,2.907,0,0,0-3-3,2.937,2.937,0,0,0-2.125.85,3.048,3.048,0,0,0,0,4.275A2.893,2.893,0,0,0,10,17ZM41,41V25L7,22.05,41,22a2.988,2.988,0,0,1,3,3V44ZM7,41H41l3,3H4V25a2.988,2.988,0,0,1,3-3l34,3H7Zm3-21a5.893,5.893,0,0,1-6-6A5.829,5.829,0,0,1,5.725,9.75,5.763,5.763,0,0,1,10,8a5.786,5.786,0,0,1,4.25,1.75A5.786,5.786,0,0,1,16,14a5.763,5.763,0,0,1-1.75,4.275A5.829,5.829,0,0,1,10,20ZM24,11ZM10,14ZM38,14Z" transform="translate(-4 -4)"/>
</svg>
