<svg xmlns="http://www.w3.org/2000/svg" width="18.001" height="19.224" viewBox="0 0 18.001 19.224">
  <g id="settings_3_" data-name="settings (3)" transform="translate(1 1)">
    <circle id="Ellipse_222" data-name="Ellipse 222" cx="2" cy="2" r="2" transform="translate(6.094 6.612)" fill="none" stroke="#1d1d23" stroke-linecap="round" stroke-linejoin="round" stroke-width="2"/>
    <path id="Path_1404" data-name="Path 1404" d="M14.383,11.96a1.366,1.366,0,0,0,.24,1.425l.044.047a1.652,1.652,0,0,1,0,2.216,1.383,1.383,0,0,1-2.058,0l-.044-.047a1.137,1.137,0,0,0-1.324-.258,1.3,1.3,0,0,0-.727,1.182v.133a1.513,1.513,0,0,1-1.455,1.566A1.513,1.513,0,0,1,7.6,16.658v-.07a1.289,1.289,0,0,0-.786-1.182,1.137,1.137,0,0,0-1.324.258l-.044.047a1.383,1.383,0,0,1-2.058,0,1.652,1.652,0,0,1,0-2.216l.044-.047a1.366,1.366,0,0,0,.24-1.425,1.2,1.2,0,0,0-1.1-.783H2.455A1.513,1.513,0,0,1,1,9.674,1.513,1.513,0,0,1,2.455,8.109H2.52a1.21,1.21,0,0,0,1.1-.846,1.366,1.366,0,0,0-.24-1.425l-.044-.047a1.652,1.652,0,0,1,0-2.216,1.383,1.383,0,0,1,2.058,0l.044.047a1.137,1.137,0,0,0,1.324.258h.058A1.3,1.3,0,0,0,7.546,2.7V2.566A1.513,1.513,0,0,1,9,1a1.513,1.513,0,0,1,1.455,1.566v.07a1.3,1.3,0,0,0,.727,1.182,1.137,1.137,0,0,0,1.324-.258l.044-.047a1.383,1.383,0,0,1,2.058,0,1.652,1.652,0,0,1,0,2.216l-.044.047a1.366,1.366,0,0,0-.24,1.425v.063a1.2,1.2,0,0,0,1.1.783h.124A1.513,1.513,0,0,1,17,9.612a1.513,1.513,0,0,1-1.455,1.566h-.065A1.2,1.2,0,0,0,14.383,11.96Z" transform="translate(-1 -1)" fill="none" stroke="#1d1d23" stroke-linecap="round" stroke-linejoin="round" stroke-width="2"/>
  </g>
</svg>
