<svg xmlns="http://www.w3.org/2000/svg" width="17.704" height="17.704" viewBox="0 0 17.704 17.704">
  <g id="slack" transform="translate(-1.15 -1.15)">
    <path id="Path_1393" data-name="Path 1393" d="M14.2,8.4A1.2,1.2,0,0,1,13,7.2v-4a1.2,1.2,0,1,1,2.4,0v4A1.2,1.2,0,0,1,14.2,8.4Z" transform="translate(-2.198)" fill="none" stroke="#1d1d23" stroke-linecap="round" stroke-linejoin="round" stroke-width="1.7"/>
    <path id="Path_1394" data-name="Path 1394" d="M20.2,9.4H19V8.2a1.2,1.2,0,1,1,1.2,1.2Z" transform="translate(-3.397 -0.999)" fill="none" stroke="#1d1d23" stroke-linecap="round" stroke-linejoin="round" stroke-width="1.7"/>
    <path id="Path_1395" data-name="Path 1395" d="M9.2,14a1.2,1.2,0,0,1,1.2,1.2v4a1.2,1.2,0,0,1-2.4,0v-4A1.2,1.2,0,0,1,9.2,14Z" transform="translate(-1.199 -2.398)" fill="none" stroke="#1d1d23" stroke-linecap="round" stroke-linejoin="round" stroke-width="1.7"/>
    <path id="Path_1396" data-name="Path 1396" d="M3.2,14H4.4v1.2A1.2,1.2,0,1,1,3.2,14Z" transform="translate(0 -2.398)" fill="none" stroke="#1d1d23" stroke-linecap="round" stroke-linejoin="round" stroke-width="1.7"/>
    <path id="Path_1397" data-name="Path 1397" d="M14,14.2A1.2,1.2,0,0,1,15.2,13h4a1.2,1.2,0,0,1,0,2.4h-4A1.2,1.2,0,0,1,14,14.2Z" transform="translate(-2.398 -2.198)" fill="none" stroke="#1d1d23" stroke-linecap="round" stroke-linejoin="round" stroke-width="1.7"/>
    <path id="Path_1398" data-name="Path 1398" d="M15.2,19H14v1.2A1.2,1.2,0,1,0,15.2,19Z" transform="translate(-2.398 -3.397)" fill="none" stroke="#1d1d23" stroke-linecap="round" stroke-linejoin="round" stroke-width="1.7"/>
    <path id="Path_1399" data-name="Path 1399" d="M8.4,9.2A1.2,1.2,0,0,0,7.2,8h-4a1.2,1.2,0,1,0,0,2.4h4A1.2,1.2,0,0,0,8.4,9.2Z" transform="translate(0 -1.199)" fill="none" stroke="#1d1d23" stroke-linecap="round" stroke-linejoin="round" stroke-width="1.7"/>
    <path id="Path_1400" data-name="Path 1400" d="M8.2,4.4H9.4V3.2A1.2,1.2,0,1,0,8.2,4.4Z" transform="translate(-0.999)" fill="none" stroke="#1d1d23" stroke-linecap="round" stroke-linejoin="round" stroke-width="1.7"/>
  </g>
</svg>
