<svg xmlns="http://www.w3.org/2000/svg" width="15.092" height="15.11" viewBox="0 0 15.092 15.11">
  <path id="edit_square_FILL0_wght400_GRAD0_opsz48_1_" data-name="edit_square_FILL0_wght400_GRAD0_opsz48 (1)" d="M7.094,21.06A1.121,1.121,0,0,1,6,19.966V9.03A1.121,1.121,0,0,1,7.094,7.937h7.382L13.382,9.03H7.094V19.966H18.03V13.623l1.094-1.094v7.436A1.121,1.121,0,0,1,18.03,21.06ZM12.562,14.5Zm3.317-6.416.784.766-5.195,5.176v1.567h1.549l5.213-5.213.766.766-5.523,5.541h-3.1v-3.1ZM19,11.145,15.879,8.083,17.7,6.26a1.051,1.051,0,0,1,.775-.31,1.021,1.021,0,0,1,.775.328l1.531,1.549a1.091,1.091,0,0,1,.31.775,1,1,0,0,1-.328.756Z" transform="translate(-6 -5.95)" fill="#1D1D237F"/>
</svg>
