<svg xmlns="http://www.w3.org/2000/svg" xmlns:xlink="http://www.w3.org/1999/xlink" width="32" height="32" viewBox="0 0 32 32">
  <defs>
    <clipPath id="clip-path">
      <rect id="Rectangle_2298" data-name="Rectangle 2298" width="32" height="32" transform="translate(264 5533)" fill="#fff" stroke="#707070" stroke-width="1"/>
    </clipPath>
  </defs>
  <g id="Mask_Group_3" data-name="Mask Group 3" transform="translate(-264 -5533)" clip-path="url(#clip-path)">
    <g id="Layer_2" data-name="Layer 2" transform="translate(264 5544.093)">
      <g id="Layer_1" data-name="Layer 1">
        <path id="Path_8708" data-name="Path 8708" d="M1.748,2.5a2.535,2.535,0,0,1,.17-.9,2.461,2.461,0,0,1,.5-.8A2.526,2.526,0,0,1,3.207.218,2.485,2.485,0,0,1,4.27,0,2.391,2.391,0,0,1,5.5.3a1.971,1.971,0,0,1,.776.793l-.893.624a1.038,1.038,0,0,0-.216-.329A1.189,1.189,0,0,0,4.88,1.18a1.174,1.174,0,0,0-.319-.113,1.661,1.661,0,0,0-.319-.031,1.2,1.2,0,0,0-.581.134,1.281,1.281,0,0,0-.411.346A1.446,1.446,0,0,0,3.009,2a1.961,1.961,0,0,0-.077.546,1.8,1.8,0,0,0,.094.574,1.519,1.519,0,0,0,.266.489,1.272,1.272,0,0,0,.418.337,1.2,1.2,0,0,0,.549.125,1.418,1.418,0,0,0,.322-.039A1.3,1.3,0,0,0,4.9,3.908a1.138,1.138,0,0,0,.281-.213,1,1,0,0,0,.206-.322l.949.561A1.48,1.48,0,0,1,6,4.429a2.072,2.072,0,0,1-.514.369,2.822,2.822,0,0,1-1.254.3,2.254,2.254,0,0,1-1-.223,2.537,2.537,0,0,1-.787-.593,2.7,2.7,0,0,1-.51-.836A2.615,2.615,0,0,1,1.748,2.5Z" fill="#296eb7"/>
        <path id="Path_8709" data-name="Path 8709" d="M7.877,5.13a1.459,1.459,0,0,1-.514-.089,1.2,1.2,0,0,1-.407-.25,1.181,1.181,0,0,1-.269-.374,1.115,1.115,0,0,1-.1-.471,1.081,1.081,0,0,1,.119-.5,1.157,1.157,0,0,1,.329-.39,1.63,1.63,0,0,1,.5-.255A2.132,2.132,0,0,1,8.183,2.7a2.6,2.6,0,0,1,.451.04,1.491,1.491,0,0,1,.383.117V2.692q0-.645-.744-.645a1.653,1.653,0,0,0-.581.1,2.79,2.79,0,0,0-.581.307L6.778,1.75a2.963,2.963,0,0,1,.765-.361,2.882,2.882,0,0,1,.842-.121,1.94,1.94,0,0,1,1.3.4,1.445,1.445,0,0,1,.46,1.162v.957a.393.393,0,0,0,.053.237.263.263,0,0,0,.187.081v.957a1.893,1.893,0,0,1-.269.046q-.12.011-.218.011a.785.785,0,0,1-.482-.125.549.549,0,0,1-.205-.351l-.021-.17a1.7,1.7,0,0,1-.593.489,1.613,1.613,0,0,1-.725.171Zm.333-.815a1.032,1.032,0,0,0,.358-.062.832.832,0,0,0,.287-.17.351.351,0,0,0,.163-.269V3.457a1.826,1.826,0,0,0-.322-.089,1.8,1.8,0,0,0-.322-.031.874.874,0,0,0-.514.142.432.432,0,0,0-.2.369.419.419,0,0,0,.156.337.587.587,0,0,0,.4.131Z" fill="#296eb7"/>
        <path id="Path_8710" data-name="Path 8710" d="M13.325,5.13a1.468,1.468,0,0,1-.737-.177,1.22,1.22,0,0,1-.482-.5V6.568H10.973V1.339h.985v.6a1.494,1.494,0,0,1,.514-.5,1.452,1.452,0,0,1,.734-.177,1.6,1.6,0,0,1,.691.149,1.691,1.691,0,0,1,.545.408,1.914,1.914,0,0,1,.362.608,2.134,2.134,0,0,1,.131.755,2.388,2.388,0,0,1-.119.773,1.939,1.939,0,0,1-.333.613,1.549,1.549,0,0,1-.51.407A1.422,1.422,0,0,1,13.325,5.13Zm-.382-.957a.7.7,0,0,0,.337-.082.9.9,0,0,0,.266-.216.954.954,0,0,0,.174-.316,1.2,1.2,0,0,0,.06-.379,1.039,1.039,0,0,0-.067-.379.95.95,0,0,0-.184-.3.813.813,0,0,0-.283-.2.906.906,0,0,0-.358-.071.824.824,0,0,0-.45.138.894.894,0,0,0-.33.372v.765a1.173,1.173,0,0,0,.343.475A.763.763,0,0,0,12.943,4.173Z" fill="#296eb7"/>
        <path id="Path_8711" data-name="Path 8711" d="M15.5,3.621V2.6h2.183v1.02Z" fill="#296eb7"/>
        <path id="Path_8712" data-name="Path 8712" d="M19.709,2.183V5.059H18.547V.028h.907L21.8,2.983V.028h1.162v5.03h-.936Z" fill="#296eb7"/>
        <path id="Path_8713" data-name="Path 8713" d="M25.561,5.13a2.2,2.2,0,0,1-.84-.153,1.867,1.867,0,0,1-.631-.414,1.774,1.774,0,0,1-.393-.606,1.953,1.953,0,0,1-.134-.719,2.142,2.142,0,0,1,.134-.762,1.851,1.851,0,0,1,.39-.627,1.819,1.819,0,0,1,.627-.425,2.176,2.176,0,0,1,.847-.156,2.137,2.137,0,0,1,.842.156,1.85,1.85,0,0,1,.624.422,1.792,1.792,0,0,1,.387.613,2.05,2.05,0,0,1,.131.73q0,.1-.007.195a1.4,1.4,0,0,1-.021.167H24.768a.766.766,0,0,0,.273.57.868.868,0,0,0,.556.195,1.02,1.02,0,0,0,.478-.12.616.616,0,0,0,.308-.326l.964.269a1.745,1.745,0,0,1-.68.717A2.079,2.079,0,0,1,25.561,5.13Zm.787-2.281a.858.858,0,0,0-.255-.561.769.769,0,0,0-.545-.206A.758.758,0,0,0,25,2.29a.866.866,0,0,0-.251.556Z" fill="#296eb7"/>
        <path id="Path_8714" data-name="Path 8714" d="M30.443,4.86a4.517,4.517,0,0,1-.533.184,2.217,2.217,0,0,1-.606.085,1.458,1.458,0,0,1-.4-.053.888.888,0,0,1-.329-.17A.793.793,0,0,1,28.35,4.6a1.174,1.174,0,0,1-.081-.461V2.2h-.476V1.339h.475V.156H29.4V1.339h.758V2.2H29.4V3.748a.3.3,0,0,0,.326.347.866.866,0,0,0,.262-.043,1.613,1.613,0,0,0,.234-.094Z" fill="#296eb7"/>
        <path id="Path_8715" data-name="Path 8715" d="M.455,7.225.34,7.294l0,0Z" fill="#d7ba20"/>
        <path id="Path_8716" data-name="Path 8716" d="M.53,7.1l-.036.021H.5Z" fill="#d7ba20"/>
        <path id="Path_8717" data-name="Path 8717" d="M.345,7.3c.02.013.079,0,.031.057l-.258.156c-.06.049.012.021.018.031a.788.788,0,0,0-.129.083c-.035.038.041.006.172-.067C.427,7.322,1.1,6.916.345,7.3Z" fill="#d7ba20"/>
        <path id="Path_8718" data-name="Path 8718" d="M.831,6.975c-.114.054-.226.113-.338.178-.028.031-.068.072-.027.062Z" fill="#d7ba20"/>
        <path id="Path_8719" data-name="Path 8719" d="M30.837,7.756s.008,0,.068.028l-.068-.028s0,.009-.031,0a3.431,3.431,0,0,1,.749.383c.034.017.067.031.1.048a4.706,4.706,0,0,0-1.869-.762,6.92,6.92,0,0,1,1.056.333Z" fill="#d7ba20"/>
        <path id="Path_8720" data-name="Path 8720" d="M31.715,8.192c.017.017.037.031.052.048C31.726,8.192,31.718,8.189,31.715,8.192Z" fill="#d7ba20"/>
        <path id="Path_8721" data-name="Path 8721" d="M19,8.19c-.446.083-.835.173-1.23.254.842-.148,1.7-.318,2.339-.458Z" fill="#d7ba20"/>
        <path id="Path_8722" data-name="Path 8722" d="M15.789,8.792a14.424,14.424,0,0,0,1.459-.211c-.447.064-.889.14-1.334.189Z" fill="#d7ba20"/>
        <path id="Path_8723" data-name="Path 8723" d="M16.407,8.683c.511-.069.941-.148,1.363-.24Z" fill="#d7ba20"/>
        <path id="Path_8724" data-name="Path 8724" d="M26.409,6.668c.346-.026.552-.016.671-.016l.218-.023-.062,0-.535,0-.545.02a3.635,3.635,0,0,0-.409.039C25.966,6.664,26.189,6.674,26.409,6.668Z" fill="#d7ba20"/>
        <path id="Path_8725" data-name="Path 8725" d="M27.08,6.652C26.632,6.706,27.541,6.661,27.08,6.652Z" fill="#d7ba20"/>
        <path id="Path_8726" data-name="Path 8726" d="M24.9,7.1l-.051.005-.148.02Z" fill="#d7ba20"/>
        <path id="Path_8727" data-name="Path 8727" d="M20.747,7.582l.867-.174c-.59.115-1.185.234-1.675.343l.222-.036C20.307,7.677,20.526,7.624,20.747,7.582Z" fill="#d7ba20"/>
        <path id="Path_8728" data-name="Path 8728" d="M27.227,6.975a14.5,14.5,0,0,0-2.381.125,38.3,38.3,0,0,0-4.378.771c-.585.135-1.4.293-2.207.447s-1.629.29-2.224.405c.129-.012.254-.023.372-.041l-.493.086a26.867,26.867,0,0,1-2.978.22,20.631,20.631,0,0,1-3.025-.151c-.3-.041-.53-.055-.832-.1s-.6-.1-.9-.166a.023.023,0,0,0,.01.006c-1.231-.242-2.411-.6-3.637-.925-.575-.156-1.146-.315-1.719-.439-.216-.045-.211-.066-.354-.1a3.669,3.669,0,0,0-.76-.136A1.755,1.755,0,0,0,.963,7.1L.956,7.085c-.085.037-.16.075-.224.107A1.9,1.9,0,0,1,1.2,6.923c.057-.027.085-.04.046-.042a1.2,1.2,0,0,0-.337.078h0c.041-.02.079-.037.115-.051l.013,0h0a3.954,3.954,0,0,1,.4-.135,2.024,2.024,0,0,0-.37.079c.02-.016.033-.027.018-.031L1.118,6.8l.1-.027a.194.194,0,0,0,.038-.021,6.777,6.777,0,0,1,.773-.094,1.95,1.95,0,0,0-.62.008H1.351c.377-.048-.005-.046.223-.07a3.548,3.548,0,0,1,.911.079c1.206.228,2.194.53,3.351.842l.152.042c.561.152,1.088.3,1.639.429l-.113-.015c.443.11.889.21,1.341.279a23.344,23.344,0,0,0,3.413.275,25.474,25.474,0,0,0,3.709-.246l-.773.1-.786.074c-.238.022-.476.023-.706.037.239-.011.474-.013.706-.037a17.813,17.813,0,0,0,2.551-.323c.077-.006.078,0,.151-.01.517-.08,1.035-.154,1.472-.257,0-.006.22-.044.144-.043.441-.08.956-.179,1.4-.272.191-.04.379-.087.568-.137.789-.162,1.573-.329,2.383-.472a24.138,24.138,0,0,1,2.526-.339c.11-.007.224-.018.34-.023l.356-.006c.24-.006.479-.006.7.006-.326-.009-.663.014-1,.024s-.675.051-1.014.089a14.673,14.673,0,0,0-1.79.255l-.353.073c.715-.133,1.432-.245,2.144-.328.194-.022.393-.025.591-.038s.4-.023.595-.022h-.024c-.312,0-.619.047-.932.068-.293.021-.579.055-.852.084s-.53.079-.767.121c-.059.011-.118.021-.173.034l-.353.073c.441-.083.884-.148,1.324-.213.274-.031.548-.072.821-.1l.523-.029-.055.008c-.153.016-.573.112-.343.115.291-.018.611-.046.931-.046.159,0,.318-.009.472-.007l.439.011c.278,0,.519.026.691.035l.2.013.072.009c.036.013-.445-.018-.926-.028s-.962.006-.924.009l.336,0-.306.019-.369.008c-.123,0-.236.016-.312.026-.263.034-.545.055-.834.094s-.589.069-.884.125c-.371.064-.811.162-1.251.257,0,.012-.221.045-.145.044a8.384,8.384,0,0,0-1.07.227l-.031.007c-.029.006-.071.015-.115.026-.693.122-1.169.25-1.794.385-.216.043-.435.085-.662.125.148-.025.371-.059.517-.094l.144-.031c.559-.109,1.088-.227,1.617-.338l.176-.046.116-.02.029-.012c.506-.111,1.08-.221,1.513-.307a19.787,19.787,0,0,1,2.547-.314c-.421.029-.833.094-1.238.148l.741-.094c.241-.031.479-.043.712-.066l.215-.012.45,0-.418,0c.281-.007.557-.026.83-.025a14.354,14.354,0,0,1,2.28.18c.19.031.379.073.568.11s.376.088.56.149A5.433,5.433,0,0,1,31.3,7.8l-.1-.029a6.557,6.557,0,0,0-1.984-.589,9.579,9.579,0,0,1,1.1.259s0,.009-.031,0a5.3,5.3,0,0,1,.814.3c-.091-.031-.2-.054-.3-.083-.143-.044-.352-.125-.569-.182a11.938,11.938,0,0,0-2.8-.434A15.684,15.684,0,0,0,24.9,7.1,16.179,16.179,0,0,1,27.227,6.975ZM2.4,6.9l.231.036-.035-.01a1.594,1.594,0,0,0-.2-.026Zm1.694.4A16.067,16.067,0,0,0,2.3,6.9s-.006,0-.007,0c.532.1,1.188.239,1.794.395Zm1.941.682L6.02,7.973v0Zm9.12.683c-.3.037-.635.077-.992.1s-.733.049-1.11.055c-.226,0-.452.026-.754.027l-.907-.007.226.021-.681-.031a5.718,5.718,0,0,1-.679-.056.455.455,0,0,1-.153,0c-.377-.034-.751-.106-1.052-.142L8.5,8.541c-.177-.035-.343-.067-.494-.092-.075-.014-.226-.031-.374-.06-.18-.041-.362-.079-.54-.125l.021.01c.145.04.295.072.444.1.445.1.968.189,1.418.259a19.609,19.609,0,0,0,3.246.243l.68-.026A17.031,17.031,0,0,0,14.853,8.7c.072-.012.222-.024.3-.042Zm.806-.345c-.389.057-.8.113-1.209.146s-.811.062-1.181.074c-.3.023-.876.022-1.343.044-.466,0-.822.015-.675.056.374-.044,1.607-.017,2.684-.089s1.988-.2,1.722-.231Zm6.136-1.143c-.309.062-.606.128-.957.193Zm-3.1.817c.951-.213,1.98-.418,2.935-.615.736-.151,1.556-.257,2.222-.383l0-.018-.074.016c-.262.033-.476.049-.695.08l.038-.007-.066.011c-.146.021-.3.044-.472.076l-.242.048c-.924.17-1.871.361-2.7.553-.512.113-.949.223-1.463.329C18.624,8.055,18.847,8.022,18.993,7.991Z" fill="#d7ba20"/>
        <path id="Path_8729" data-name="Path 8729" d="M25.842,6.955c.323-.018.651-.031.981-.031.254,0,.508,0,.76.011a11.549,11.549,0,0,1,1.913.229,6.863,6.863,0,0,1,1.895.653c.043,0,.056-.009.023-.049a6.612,6.612,0,0,0-2.027-.7,15.56,15.56,0,0,0-2.111-.242h-.033a17.193,17.193,0,0,0-2.336.117c-.746.105-1.485.235-2.221.383A24.993,24.993,0,0,1,25.842,6.955Z" fill="#d7ba20"/>
        <path id="Path_8730" data-name="Path 8730" d="M17.247,8.581l.878-.15c.817-.151,1.539-.3,2.273-.462-.542.1-1.087.209-1.639.3S17.743,8.479,17.247,8.581Z" fill="#d7ba20"/>
        <path id="Path_8731" data-name="Path 8731" d="M20.994,7.839l-.6.13c.8-.156,1.6-.312,2.392-.455a23.076,23.076,0,0,1,3.937-.45l.448.008a17.776,17.776,0,0,0-3.632.235c-1.172.183-2.29.421-3.317.65l-.119.027c.983-.187,1.952-.383,2.922-.55C22.349,7.556,21.672,7.7,20.994,7.839Z" fill="#d7ba20"/>
        <path id="Path_8732" data-name="Path 8732" d="M25.529,6.983l.216-.013c.084-.006.166-.017.248-.019-.051,0-.1,0-.151,0Z" fill="#d7ba20"/>
        <path id="Path_8733" data-name="Path 8733" d="M23.381,7.07l-.028,0L22.64,7.2l-1.025.21Z" fill="#d7ba20"/>
        <path id="Path_8734" data-name="Path 8734" d="M21.3,7.285l-.3.055-.133.035.209-.037Z" fill="#d7ba20"/>
        <path id="Path_8735" data-name="Path 8735" d="M16.969,8.14c1.307-.211,2.523-.468,3.731-.717l.174-.046c-.815.148-1.622.312-2.362.47-.146.031-.364.089-.511.111-.7.119-1.359.236-2.023.33.318-.036.638-.094.965-.143Z" fill="#d7ba20"/>
        <path id="Path_8736" data-name="Path 8736" d="M6.366,7.037a24.564,24.564,0,0,0,4.652.8,22.328,22.328,0,0,0,4.737-.16c1.764-.234,3.578-.641,5.4-1.031.912-.2,1.83-.383,2.749-.527a16.258,16.258,0,0,1,2.756-.233c0,.018-.3.05,0,.055a7.774,7.774,0,0,1,1.049.091c.149.031.147.046.146.065a3.815,3.815,0,0,1-.411-.021c-.187-.007-.337-.012-.187,0a13.717,13.717,0,0,0-1.421.007c-.374.031-.521.049-.073.026.149-.01.523-.008.9-.014.374.011.746.024.894.051.3.049-.3.034,0,.083.148.012.371.024.593.046s.443.047.589.069c.289.062-.3.011-.007.055a12.538,12.538,0,0,1,1.472.317A6.384,6.384,0,0,1,30.989,7c.13.058.258.121.381.191a2.119,2.119,0,0,1,.332.232c-.007.007.039.066.033.072s-.018-.008-.06-.046a2.459,2.459,0,0,0-.209-.146A5.87,5.87,0,0,0,29.7,6.636a12.469,12.469,0,0,0-1.916-.271c-.323-.028-.648-.035-.974-.046-.163-.007-.323,0-.485,0s-.323,0-.485.015c-.324.026-.648.042-.972.088l-.487.061-.485.076c-1.293.207-2.58.5-3.875.774s-2.6.536-3.921.716a25.481,25.481,0,0,1-3.995.25,22.974,22.974,0,0,1-3.975-.431C6.825,7.616,5.554,7.231,4.3,6.861c-.627-.183-1.26-.362-1.884-.509a2.832,2.832,0,0,0-1.751.291A3.7,3.7,0,0,0,.239,6.9c-.059.04-.038.013.027-.042a2.757,2.757,0,0,1,.893-.488,3.1,3.1,0,0,0-.533.2A1.046,1.046,0,0,1,1,6.355,2.866,2.866,0,0,1,1.528,6.2a2.4,2.4,0,0,1,.76-.039,2.665,2.665,0,0,0-.872.048c-.288.057-.007-.027-.009-.045A3.321,3.321,0,0,1,1.813,6.1c.111-.011.185-.01.185-.015V6.05a2.91,2.91,0,0,0-.6.066,3.417,3.417,0,0,0-.576.175,3.7,3.7,0,0,1,.393-.133A1.739,1.739,0,0,0,1.4,6.106L1.39,6.07a2.561,2.561,0,0,1,1.069-.023c.368.087.726.183,1.017.258l.007-.027c-.289-.084-.647-.178-1.018-.262a2.729,2.729,0,0,0-1.081.027c.3-.067.3-.062.3-.085a2.455,2.455,0,0,1,.709.009c.24.046.442.109.665.162l1.3.349-.866-.244C4.087,6.342,5.5,6.814,6.366,7.037Z" fill="#59ba56"/>
        <path id="Path_8737" data-name="Path 8737" d="M7.392,9.241c.006-.011-.1-.047.069-.016.261.053.495.112.73.163a7.454,7.454,0,0,0,.736.14l.041-.013c.2.041.412.071.624.1s.428.064.646.089a20.954,20.954,0,0,0,2.414.1c-.021-.007-.031-.014.049-.017l.583,0,.69-.029.21-.014a.187.187,0,0,0,.076-.019l.585-.045a65.592,65.592,0,0,0,7.13-1.334c.526-.122,1.053-.234,1.564-.328a20.085,20.085,0,0,1,2.479-.257,2.526,2.526,0,0,1,.766-.094c.4-.012.767-.025.586-.067.25.019.565.037.821.062s.454.044.474.037a1.526,1.526,0,0,1,.474-.019,6.481,6.481,0,0,1,1.382.257,5.28,5.28,0,0,1,.848.352,3.067,3.067,0,0,1,.586.392c.054.049.053.041.025,0a1.292,1.292,0,0,0-.192-.18c-.149-.118-.305-.214-.163-.143a5.808,5.808,0,0,0-1.411-.583,11.211,11.211,0,0,0-1.448-.3c-.242-.034-.484-.058-.726-.083s-.484-.039-.726-.048-.482-.022-.726-.02-.488,0-.731.014a23.027,23.027,0,0,0-2.878.356c-.951.165-1.9.367-2.851.559-.323.072-1.112.241-2.152.432a34.205,34.205,0,0,1-3.659.487,23.067,23.067,0,0,1-3.855-.037,21.336,21.336,0,0,1-2.68-.424l-.2-.044c-1.21-.272-2.659-.724-3.7-.987-.474-.119-.964-.222-1.451-.318.222.066.428.125.6.183-.245-.062-.488-.122-.7-.169a2.614,2.614,0,0,0-.5-.061,1.975,1.975,0,0,0-.543.046c-.09.023-.1.033-.062.036a3.524,3.524,0,0,1,.545.027c.149.019.121.031.115.045s.01.022.234.066a2.788,2.788,0,0,0-.409-.04,2.2,2.2,0,0,0-.41.026c-.017.011.232-.031.463-.019s.433.051.317.046a2.344,2.344,0,0,0-.983.041A3.636,3.636,0,0,1,1.7,7.553a1.447,1.447,0,0,1,.471.065,3.435,3.435,0,0,0-.524-.059,1.13,1.13,0,0,0-.437.056,3.177,3.177,0,0,1,.465-.039,1.8,1.8,0,0,0-.962.26c-.059.041-.066.056-.012.033a2.859,2.859,0,0,1,.38-.132,1.863,1.863,0,0,0-.465.2A2.107,2.107,0,0,0,.2,8.278h0a2.282,2.282,0,0,1,.455-.356,2.037,2.037,0,0,0-.423.333L.315,8.2a2.312,2.312,0,0,1,.326-.243,2.179,2.179,0,0,0-.284.212c.075-.051.16-.107.256-.16a1.913,1.913,0,0,1,.973-.25,2.691,2.691,0,0,1,.681.073c.239.059.485.117.727.184.485.127.967.271,1.453.414C5.417,8.715,6.394,9.013,7.392,9.241Z" fill="#296eb7"/>
      </g>
    </g>
  </g>
</svg>
